<svg height="512" viewBox="0 0 60 61" width="512" xmlns="http://www.w3.org/2000/svg"><g id="Page-1" fill="none" fill-rule="evenodd"><g id="005---Mobile-Navigation" fill-rule="nonzero"><path id="Shape" d="m44.9 17h-7.9c-.6952312-.0013478-1.3784087.181523-1.98.53-2.2111121-5.1201034-7.5444737-8.1581426-13.0762985-7.4486433-5.5318249.7094993-9.9258662 4.9951532-10.7732797 10.5075362-.8474135 5.5123829 2.0564988 10.9199444 7.1197918 13.2582213 5.0632931 2.338277 11.0628968 1.042444 14.7097864-3.1771142v20.29c-2.7202208 2.8759949-5.6920432 5.5031127-8.88 7.85-.3462756.249943-.8137244.249943-1.16 0-3.51-2.52-21.92-16.84-21.92-35.31-.03953111-11.1330083 8.1032714-20.60544851 19.1160702-22.23753224 11.0127989-1.63208373 21.5528801 5.07157531 24.7439298 15.73753224z" fill="#f44335"/><g fill="#c81e1e"><path id="Shape" d="m30 33.2v17.76c-2.4623393 2.5933272-5.1241574 4.9896656-7.961 7.167.367.279.682.511.921.683.3462756.249943.8137244.249943 1.16 0 3.1879568-2.3468873 6.1597792-4.9740051 8.88-7.85v-20.29c-.8612933.9952794-1.8736418 1.8490267-3 2.53z"/><path id="Shape" d="m23.92 1c-.67-.011-1.332.013-1.987.059 9.3137656.66824044 17.252764 7.00647718 19.967 15.941h3c-2.8107924-9.29987897-11.2678656-15.74950579-20.98-16z"/><path id="Shape" d="m35.02 17.53c.6015913-.348477 1.2847688-.5313478 1.98-.5300074h-2.234c.086.1760074.176.3500074.254.5300074z"/></g><path id="Shape" d="m59 21v6.95l-9.52 9.53-16.48-16.48c.0071353-2.2061767 1.7938233-3.9928647 4-4l3 5h12l3-5c2.209139 0 4 1.790861 4 4z" fill="#60a917"/><path id="Shape" d="m59 27.95v-6.95c0-2.209139-1.790861-4-4-4l-.527.878c.961194.7511403 1.5241511 1.9021239 1.527 3.122v10z" fill="#549414"/><path id="Shape" d="m46.65 40.31-5.66 5.66-7.99-7.99v-11.32z" fill="#ff9801"/><path id="Shape" d="m38.16 48.79-5.16 5.16v-10.32l2.33 2.34z" fill="#3f51b5"/><path id="Shape" d="m51.31 59.1100018-14.31-.0000018c-.9361816.0008928-1.8426844-.3284227-2.56-.93l7.97-7.97z" fill="#ff9801"/><path id="Shape" d="m59 33.61v7.74l-3.87-3.87z" fill="#3f51b5"/><path id="Shape" d="m59 47v8.11c-.0035307 1.582183-.9352537 3.0150009-2.38 3.66l-11.39-11.39 7.08-7.07z" fill="#ff9801"/><path id="Shape" d="m56 44v11.11c-.0010919.8248724-.2594192 1.6288681-.739 2.3l1.359 1.36c1.4447463-.6449991 2.3764693-2.077817 2.38-3.66v-8.11z" fill="#f57c00"/><path id="Shape" d="m55 17-3 5h-12l-3-5z" fill="#7f8e94"/><path id="Shape" d="m52 17-3 5h3l3-5z" fill="#545c60"/><path id="Shape" d="m59 33.61-3.87 3.87 3.87 3.87v5.65l-6.69-6.69-7.08 7.07 11.39 11.39c-.5102407.2255017-1.0621516.3413349-1.62.34h-3.69l-8.9-8.9-7.97 7.97c-.9129389-.7580531-1.4407728-1.8833655-1.44-3.07v-1.16l5.16-5.16-2.83-2.82-2.33-2.34v-5.65l7.99 7.99 5.66-5.66-13.65-13.65-.0000008-5.66 16.4800008 16.48 9.52-9.53z" fill="#ffdc00"/><path id="Shape" d="m23.54 10c-5.7710446-.00023181-10.7920946 3.9503517-12.1497036 9.5594384s1.3011626 11.4184745 6.433572 14.0572868c5.1324093 2.6388122 11.4041768 1.4210332 15.1761316-2.9467252v-9.67c-.0045191-1.4370663.7681209-2.7643241 2.02-3.47-1.9865977-4.5714078-6.4955904-7.5289614-11.48-7.53zm-.04 15-6.5 3 6.5-12 6.5 12z" fill="#ffeb3a"/><path id="Shape" d="m23.54 10c-.5015495.0033177-1.0024486.036711-1.5.1 4.4084884.5326004 8.2054924 3.359428 9.98 7.43-1.2518791.7056759-2.0245191 2.0329337-2.02 3.47v9.67c-2.0299765 2.3502309-4.8637488 3.8585809-7.947 4.23 4.1282324.5212402 8.2418811-1.0683034 10.947-4.23v-9.67c-.0045191-1.4370663.7681209-2.7643241 2.02-3.47-1.9865977-4.5714078-6.4955904-7.5289614-11.48-7.53z" fill="#fdd834"/><path id="Shape" d="m30 28-6.5-3-6.5 3 6.5-12z" fill="#02a9f4"/><path id="Shape" d="m59 27.95v5.66l-3 3v-5.66z" fill="#fec108"/><path id="Shape" d="m59 41.35v5.65l-3-3v-5.65z" fill="#fec108"/><path id="Shape" d="m8.489 34.34c-.13903053-.3353238-.44885901-.568972-.80948498-.6104499-.36062597-.041478-.71540922.1157291-.92693777.4107328-.21152854.2950037-.24657952.6814705-.09157725 1.0097171 3.37 7.6 9.272 13.8 13.63 17.653.4142136.3658886 1.0466113.3267135 1.4124999-.0875.3658887-.4142136.3267136-1.0466113-.0874999-1.4125-4.209-3.723-9.903-9.689-13.127-16.963z" fill="#000"/><path id="Shape" d="m55.157 16.016c-.015 0-.03 0-.045 0-.038 0-.074-.011-.112-.011h-9.4c-3.6574265-10.86673027-14.6523575-17.48050548-25.9660028-15.61931645-11.31364539 1.86118902-19.61044205 11.64861435-19.5939972 23.11431645 0 19.521 20.05 34.481 22.339 36.124.694975.4957814 1.628025.4957814 2.323 0 2.582705-1.8920072 5.0220181-3.9723422 7.298-6.224v1.71c-.0000595.1850742.0099553.3700145.03.554.1414811 1.2823212.776241 2.4593168 1.77 3.282h.006c.8955261.7500258 2.0258812 1.1619648 3.194 1.164h18c.6966338.0013589 1.3858061-.1434252 2.023-.425 1.8055942-.8069638 2.9705808-2.5972943 2.977-4.575v-34.11c-.0072956-2.6950457-2.1492731-4.8993851-4.843-4.984zm2.843 4.984v6.537l-8.52 8.528-15.442-15.441c.1625177-1.294375 1.1449402-2.3342539 2.428-2.57l2.677 4.461c.1807575.3008613.5060146.4849332.857.485h12c.3509854-.0000668.6762425-.1841387.857-.485l2.677-4.461c1.4254488.2578445 2.4630581 1.4974216 2.466 2.946zm-24 25.045 2.745 2.747-2.745 2.744zm19.234-28.045-1.8 3h-10.868l-1.8-3zm-21.234 3v9.269c-3.3979847 3.6863385-8.7944732 4.7425808-13.3315097 2.6093458-4.5370364-2.133235-7.1660594-6.9629322-6.4947502-11.9313057s4.4878033-8.927175 9.4282843-9.7798411c4.9404809-.8526661 9.8631466 1.5978641 12.1609756 6.053801-1.1134772.9401253-1.75803 2.3217278-1.763 3.779zm2 8.074 11.236 11.236-4.246 4.246-6.99-6.99zm-10.457 28.926c-2.2-1.581-21.5-15.975-21.5-34.5-.05932551-10.3825326 7.35090049-19.30612616 17.5675931-21.15536823 10.2166925-1.84924207 20.284679 3.91075957 23.8684069 13.65536823h-6.479c-.038 0-.074.01-.112.011-.015 0-.03 0-.046 0-.4509942.0173222-.8974845.0963917-1.327.235-2.6323202-5.0778434-8.1736508-7.95151757-13.8406303-7.1776015-5.6669796.77391608-10.2348788 5.0281662-11.4092824 10.6258782-1.17440356 5.597712 1.2984968 11.3291264 6.1765852 14.3154045s11.107128 2.5820352 15.5583275-1.0096812v17.556c-2.5986643 2.7209803-5.4282506 5.2116319-8.457 7.444zm12.535-.041 6.332-6.333 6.49 6.484h-11.9c-.3134533-.0023549-.6245867-.0539855-.922-.153zm15.646.153-8.607-8.612c-.3966954-.3751231-1.0173046-.3751231-1.414 0l-7.215 7.215c-.0687713-.0975764-.1312321-.199451-.187-.305-.007-.014-.016-.027-.022-.041-.0788898-.174322-.1408414-.3558233-.185-.542-.011-.045-.021-.09-.03-.136-.0402956-.1911055-.0617318-.3857056-.064-.581v-.746l4.867-4.864c.187777-.1875683.2932867-.4420908.2932867-.7075s-.1055097-.5199317-.2932867-.7075l-4.867-4.868v-2.823l6.283 6.283c.3904999.3903819 1.0235001.3903819 1.414 0l5.66-5.66c.3903819-.3904999.3903819-1.0235001 0-1.414l-13.357-13.357v-2.832l14.773 14.773c.1875683.187777.4420908.2932867.7075.2932867s.5199317-.1055097.7075-.2932867l7.812-7.821v2.834l-3.577 3.577c-.3903819.3904999-.3903819 1.0235001 0 1.414l3.577 3.573v2.822l-4.983-4.986c-.3904999-.3903819-1.0235001-.3903819-1.414 0l-7.08 7.069c-.187777.1875683-.2932867.4420908-.2932867.7075s.1055097.5199317.2932867.7075l10.023 10.026zm6.276-22.088v2.912l-1.456-1.456zm-1.221 21.491-10.134-10.135 5.665-5.656 5.69 5.69v7.7c-.0066771.947837-.4589916 1.8372778-1.221 2.401z" fill="#000"/><path id="Shape" d="m24.379 15.524c-.014-.026-.039-.042-.055-.066-.0355403-.0569662-.0771135-.1099384-.124-.158-.0469332-.0483886-.0988938-.0916332-.155-.129-.024-.016-.039-.04-.065-.054-.0306954-.0116248-.0620905-.0213106-.094-.029-.0641228-.0278924-.1312256-.0483588-.2-.061-.059333-.0114258-.1195794-.0174504-.18-.018-.064475-.0001168-.1287984.0062486-.192.019-.0652201.0129768-.1289011.0327514-.19.059-.0339265.0079043-.0673251.0179239-.1.03-.027.014-.042.039-.067.055-.0549022.0373675-.1058344.0802578-.152.128-.048372.0465832-.0916184.0982106-.129.154-.0196923.020831-.0380616.0428741-.055.066l-6.5 12c-.2057066.3790494-.1452305.8472766.1500348 1.1616205s.7587944.4039809 1.1499652.2223795l6.079-2.804 6.081 2.806c.3911708.1816014.8546999.0919644 1.1499652-.2223795s.3557414-.7825711.1500348-1.1616205zm-.46 8.568c-.013-.006-.027 0-.04-.01-.064842-.0226095-.1318747-.0383622-.2-.047-.0573228-.0150024-.115902-.0247098-.175-.029-.0604149.0042854-.1203224.0139911-.179.029-.068064.0089752-.1350626.0247199-.2.047-.013.006-.027 0-.04.01l-3.769 1.74 4.184-7.732 4.188 7.732z" fill="#000"/></g></g></svg>